<svg id="Capa_1" enable-background="new 0 0 512 512" height="512" viewBox="0 0 512 512" width="512" xmlns="http://www.w3.org/2000/svg"><path fill="#0b1247" d="m43.417 0v512h425.166v-512zm395.166 482h-365.166v-452h365.166z"/><path fill="#0b1247" d="m270.999 178.667h137.446v30h-137.446z"/><path fill="#0b1247" d="m270.999 118.667h137.446v30h-137.446z"/><path fill="#0b1247" d="m270.999 58.667h137.446v30h-137.446z"/><path fill="#0b1247" d="m270.999 238.667h137.446v30h-137.446z"/><path fill="#0b1247" d="m270.999 298.667h137.446v30h-137.446z"/><path fill="#0b1247" d="m270.999 358.667h137.446v30h-137.446z"/><path fill="#0b1247" d="m103.555 358.667h137.446v30h-137.446z"/><path fill="#0b1247" d="m103.555 298.667h137.446v30h-137.446z"/><path fill="#0b1247" d="m103.555 418.667h137.446v30h-137.446z"/><path fill="#0b1247" d="m270.999 418.667h137.446v30h-137.446z"/><path fill="#0b1247" d="m215.827 143.58c6.11-8.76 9.7-19.41 9.7-30.89 0-29.83-24.19-54.02-54.02-54.02s-54.02 24.19-54.02 54.02c0 11.48 3.58 22.13 9.7 30.88-14.71 8.76-24.38 24.81-24.38 43v82.43h137.4v-82.43c0-18.19-9.67-34.23-24.38-42.99zm-44.32-54.91c13.25 0 24.02 10.77 24.02 24.02s-10.77 24.02-24.02 24.02-24.02-10.77-24.02-24.02 10.77-24.02 24.02-24.02zm38.7 150.33h-77.4v-52.43c0-10.05 7.35-18.47 17.21-19.86h42.97c9.87 1.4 17.22 9.82 17.22 19.86z"/></svg>