<svg width="20" height="20" viewBox="0 0 20 20" fill="none" xmlns="http://www.w3.org/2000/svg">
<path d="M5.46191 20C4.11839 20 2.85886 19.4801 1.91517 18.536C0.971477 17.5919 0.451172 16.3328 0.451172 14.9893C0.451172 13.6461 0.971097 12.3866 1.91517 11.4429L12.2886 1.06951C13.7727 -0.413877 16.0789 -0.347366 17.6528 1.22647C19.2266 2.80031 19.2943 5.10614 17.8101 6.59066L8.06495 16.3358C7.15014 17.2506 5.6603 17.2522 4.74397 16.3358C3.8284 15.4199 3.82878 13.93 4.74397 13.0149L11.3453 6.41356C11.568 6.19084 11.9287 6.19084 12.1514 6.41356C12.3741 6.63627 12.3741 6.99695 12.1514 7.21967L5.55008 13.821C5.07919 14.2919 5.07919 15.0584 5.55008 15.5297C6.02174 16.0006 6.78794 15.9999 7.25884 15.5297L17.004 5.78455C18.0283 4.75991 17.961 3.14692 16.8467 2.03258C15.7323 0.918241 14.1193 0.85097 13.0947 1.87562L2.72128 12.249C1.9927 12.9776 1.59136 13.9509 1.59136 14.9893C1.59136 16.028 1.9927 17.0013 2.72128 17.7299C3.44986 18.4585 4.4232 18.8598 5.46191 18.8598C6.50024 18.8598 7.47358 18.4585 8.20215 17.7299L18.5756 7.35649C18.7983 7.13377 19.159 7.13377 19.3817 7.35649C19.6044 7.57921 19.6044 7.93988 19.3817 8.1626L9.00827 18.536C8.06457 19.4797 6.80505 20 5.46191 20Z" fill="#0B1247"/>
</svg>
