<svg width="20" height="20" viewBox="0 0 20 20" fill="none" xmlns="http://www.w3.org/2000/svg">
<path d="M10 0C4.48601 0 0 4.48601 0 10C0 15.514 4.48601 20 10 20C15.514 20 20 15.514 20 10C20 4.48601 15.5141 0 10 0ZM10 18.9189C7.55024 18.9189 5.32811 17.9259 3.71464 16.3216C3.07031 15.6809 2.52334 14.9425 2.09746 14.131C1.4488 12.8952 1.0811 11.4898 1.0811 10C1.0811 5.0821 5.0821 1.0811 10 1.0811C12.3327 1.0811 14.4586 1.98165 16.0496 3.45288C16.8745 4.2156 17.5556 5.13156 18.0468 6.15535C18.6056 7.32017 18.9189 8.62417 18.9189 10C18.9189 14.9179 14.9179 18.9189 10 18.9189Z" fill="#0B1247"/>
<path d="M6.73417 8.85133C7.33124 8.85133 7.81526 8.36731 7.81526 7.77024C7.81526 7.17317 7.33124 6.68915 6.73417 6.68915C6.1371 6.68915 5.65308 7.17317 5.65308 7.77024C5.65308 8.36731 6.1371 8.85133 6.73417 8.85133Z" fill="#0B1247"/>
<path d="M13.4236 8.85133C14.0207 8.85133 14.5047 8.36731 14.5047 7.77024C14.5047 7.17317 14.0207 6.68915 13.4236 6.68915C12.8266 6.68915 12.3425 7.17317 12.3425 7.77024C12.3425 8.36731 12.8266 8.85133 13.4236 8.85133Z" fill="#0B1247"/>
<path d="M9.98098 15.5404C12.0725 15.5404 14.0769 14.4708 15.2246 12.6949L14.3165 12.1082C13.2626 13.7389 11.335 14.649 9.40475 14.4263C7.90054 14.2528 6.50951 13.3862 5.68362 12.1082L4.77563 12.6949C5.77497 14.2415 7.45918 15.2902 9.28083 15.5003C9.51469 15.5273 9.7482 15.5404 9.98098 15.5404Z" fill="#0B1247"/>
</svg>
