<svg width="20" height="18" viewBox="0 0 20 18" fill="none" xmlns="http://www.w3.org/2000/svg">
<path d="M19.9038 0.367141C19.8143 0.279914 19.682 0.252922 19.5656 0.298235L0.20387 7.81771C0.0887925 7.8624 0.00984736 7.96939 0.00105831 8.09248C-0.00773073 8.21556 0.0551988 8.33267 0.162699 8.39326L4.17515 10.654L5.56777 17.461C5.57644 17.5091 5.59601 17.5539 5.62409 17.5924C5.62691 17.5962 5.62921 17.5992 5.63156 17.6022C5.68062 17.6636 5.75019 17.7064 5.83128 17.7194C5.84163 17.721 5.85202 17.7222 5.86234 17.7228C5.86902 17.7232 5.87566 17.7234 5.8823 17.7234C5.94319 17.7234 6.00089 17.7061 6.05007 17.6755C6.06671 17.6652 6.08253 17.6532 6.09722 17.6397C6.10179 17.6355 6.10577 17.6317 6.10964 17.6278L9.13006 14.5997C9.25452 14.4748 9.25428 14.2727 9.12948 14.1483C9.00456 14.0238 8.8026 14.0241 8.67811 14.1489L6.3055 16.5275L6.81815 12.1372L14.064 16.1143C14.137 16.1541 14.2181 16.1627 14.2924 16.1447C14.3006 16.1427 14.308 16.1406 14.3154 16.1382C14.3888 16.1145 14.4531 16.0649 14.4941 15.9938C14.4961 15.9902 14.498 15.9868 14.4998 15.9835C14.5081 15.9677 14.5147 15.9523 14.52 15.9366L19.9815 0.703429C20.0236 0.585773 19.9933 0.454289 19.9038 0.367141ZM1.06399 8.16842L16.8894 2.02229L4.44722 10.0746L1.06399 8.16842ZM6.35648 11.3803C6.32663 11.4042 6.30065 11.434 6.28034 11.4688C6.27769 11.4734 6.27519 11.478 6.27276 11.4827C6.25339 11.5201 6.24214 11.5597 6.23843 11.5993L5.79573 15.3906L4.81499 10.5969L15.5613 3.64217L6.35648 11.3803ZM14.0435 15.3748L7.11831 11.5737L18.9818 1.60054L14.0435 15.3748Z" fill="white"/>
</svg>
