<svg width="24" height="24" viewBox="0 0 24 24" fill="none" xmlns="http://www.w3.org/2000/svg">
<path d="M22.7715 9.48162L21.087 9.19585C20.9115 8.62932 20.6859 8.08284 20.4102 7.56144L21.4028 6.17268C21.824 5.58108 21.7588 4.7739 21.2424 4.26252L19.7484 2.76849C19.4676 2.48773 19.0966 2.33231 18.7005 2.33231C18.3897 2.33231 18.0939 2.42756 17.8432 2.60805L16.4494 3.60073C15.908 3.31496 15.3415 3.07932 14.7549 2.90385L14.4741 1.23935C14.3538 0.522416 13.7371 0.00100708 13.0102 0.00100708H10.8995C10.1725 0.00100708 9.55582 0.522416 9.4355 1.23935L9.14471 2.94396C8.58319 3.11943 8.03672 3.35006 7.51531 3.63082L6.13658 2.63813C5.8859 2.45765 5.58509 2.36239 5.27425 2.36239C4.87818 2.36239 4.50217 2.51781 4.22642 2.79857L2.72737 4.2926C2.21599 4.80399 2.1458 5.61117 2.56694 6.20276L3.56965 7.61157C3.2939 8.13799 3.0733 8.68447 2.90284 9.251L1.23835 9.53176C0.521409 9.65208 0 10.2688 0 10.9957V13.1064C0 13.8334 0.521409 14.4501 1.23835 14.5704L2.94295 14.8612C3.11843 15.4227 3.34905 15.9692 3.62981 16.4906L2.64214 17.8643C2.221 18.4559 2.28618 19.2631 2.80257 19.7744L4.29661 21.2685C4.57737 21.5492 4.94837 21.7047 5.34444 21.7047C5.65528 21.7047 5.95108 21.6094 6.20176 21.4289L7.61056 20.4262C8.11693 20.6919 8.64837 20.9075 9.19485 21.078L9.4756 22.7625C9.59593 23.4794 10.2126 24.0009 10.9396 24.0009H13.0553C13.7822 24.0009 14.3989 23.4794 14.5192 22.7625L14.805 21.078C15.3715 20.9025 15.918 20.6769 16.4394 20.4011L17.8282 21.3938C18.0789 21.5743 18.3797 21.6696 18.6905 21.6696C19.0866 21.6696 19.4576 21.5141 19.7383 21.2334L21.2324 19.7393C21.7438 19.228 21.8139 18.4208 21.3928 17.8292L20.4001 16.4354C20.6759 15.909 20.9065 15.3625 21.077 14.801L22.7615 14.5202C23.4784 14.3999 23.9999 13.7832 23.9999 13.0563V10.9456C24.0099 10.2186 23.4885 9.60195 22.7715 9.48162ZM22.6562 13.0563C22.6562 13.1215 22.6111 13.1766 22.5459 13.1866L20.4402 13.5376C20.1745 13.5827 19.9639 13.7782 19.8988 14.0339C19.7083 14.7709 19.4175 15.4778 19.0264 16.1346C18.891 16.3652 18.9011 16.651 19.0565 16.8716L20.2948 18.6163C20.3299 18.6664 20.3249 18.7416 20.2798 18.7868L18.7858 20.2808C18.7507 20.3159 18.7156 20.3209 18.6905 20.3209C18.6604 20.3209 18.6354 20.3109 18.6153 20.2958L16.8756 19.0575C16.66 18.9021 16.3692 18.8921 16.1386 19.0274C15.4818 19.4185 14.7749 19.7093 14.0379 19.8998C13.7772 19.965 13.5817 20.1805 13.5416 20.4412L13.1856 22.5469C13.1756 22.6121 13.1205 22.6572 13.0553 22.6572H10.9446C10.8794 22.6572 10.8242 22.6121 10.8142 22.5469L10.4633 20.4412C10.4182 20.1755 10.2226 19.965 9.96693 19.8998C9.24999 19.7143 8.55813 19.4285 7.91138 19.0575C7.80609 18.9973 7.68577 18.9673 7.57046 18.9673C7.43509 18.9673 7.29471 19.0074 7.1794 19.0926L5.42466 20.341C5.39959 20.356 5.37452 20.366 5.34945 20.366C5.3294 20.366 5.28929 20.361 5.2542 20.3259L3.76016 18.8319C3.71504 18.7868 3.71002 18.7166 3.74512 18.6614L4.97845 16.9318C5.13387 16.7112 5.1439 16.4204 5.00853 16.1898C4.61748 15.538 4.31666 14.8311 4.12615 14.0941C4.05596 13.8384 3.84539 13.6429 3.58469 13.5977L1.46396 13.2368C1.39878 13.2267 1.35366 13.1716 1.35366 13.1064V10.9957C1.35366 10.9305 1.39878 10.8754 1.46396 10.8654L3.55461 10.5144C3.82032 10.4693 4.03591 10.2738 4.10108 10.0131C4.28658 9.27607 4.57236 8.56415 4.9584 7.90737C5.09376 7.67675 5.07872 7.39097 4.9233 7.17539L3.67493 5.42065C3.63984 5.37052 3.64485 5.29531 3.68997 5.25019L5.18401 3.75615C5.2191 3.72106 5.2542 3.71605 5.27927 3.71605C5.30935 3.71605 5.33441 3.72607 5.35447 3.74111L7.08414 4.97445C7.30474 5.12987 7.59552 5.13989 7.82615 5.00453C8.47791 4.61347 9.18482 4.31266 9.92181 4.12214C10.1775 4.05195 10.373 3.84138 10.4182 3.58068L10.7791 1.45995C10.7892 1.39477 10.8443 1.34965 10.9095 1.34965H13.0202C13.0854 1.34965 13.1405 1.39477 13.1505 1.45995L13.5015 3.5506C13.5466 3.81632 13.7421 4.0319 14.0028 4.09707C14.7599 4.28759 15.4818 4.58339 16.1537 4.97946C16.3843 5.11483 16.67 5.1048 16.8906 4.94938L18.6203 3.70602C18.6454 3.69098 18.6704 3.68095 18.6955 3.68095C18.7156 3.68095 18.7557 3.68596 18.7908 3.72106L20.2848 5.2151C20.3299 5.26022 20.3349 5.33041 20.2999 5.38556L19.0615 7.12526C18.9061 7.34084 18.8961 7.63163 19.0314 7.86225C19.4225 8.51902 19.7133 9.22593 19.9038 9.96292C19.969 10.2236 20.1845 10.4192 20.4452 10.4593L22.5509 10.8152C22.6161 10.8253 22.6612 10.8804 22.6612 10.9456V13.0563H22.6562Z" fill="#C4C4C4"/>
<path d="M12.0025 6.81848C9.14476 6.81848 6.82349 9.13975 6.82349 11.9975C6.82349 14.8552 9.14476 17.1765 12.0025 17.1765C14.8602 17.1765 17.1815 14.8552 17.1815 11.9975C17.1815 9.13975 14.8602 6.81848 12.0025 6.81848ZM12.0025 15.8228C9.89178 15.8228 8.17714 14.1082 8.17714 11.9975C8.17714 9.88677 9.89178 8.17214 12.0025 8.17214C14.1132 8.17214 15.8278 9.88677 15.8278 11.9975C15.8278 14.1082 14.1132 15.8228 12.0025 15.8228Z" fill="#C4C4C4"/>
</svg>
